<?xml version="1.0" encoding="utf-8"?>
<!-- Generator: Adobe Illustrator 22.0.1, SVG Export Plug-In . SVG Version: 6.00 Build 0)  -->
<svg version="1.1" id="레이어_1" xmlns="http://www.w3.org/2000/svg" xmlns:xlink="http://www.w3.org/1999/xlink" x="0px"
	 y="0px" viewBox="0 0 456 456" style="enable-background:new 0 0 456 456;" xml:space="preserve">
<style type="text/css">
	.st0{fill:#FFC421;}
	.st1{fill:#3B3B3B;}
	.st2{fill:#1C1C1D;}
</style>
<g id="bt_power_on" transform="translate(702.325 14.675) rotate(90)">
	<g id="사각형_1816" transform="translate(441.325 246.325) rotate(90)">
		<g>
			<path class="st0" d="M228,0L228,0c125.9,0,228,102.1,228,228l0,0c0,125.9-102.1,228-228,228l0,0C102.1,456,0,353.9,0,228l0,0
				C0,102.1,102.1,0,228,0z"/>
		</g>
		<g>
			<g>
				<path class="st1" d="M228,0c60.9,0,118.2,23.7,161.2,66.8C432.3,109.8,456,167.1,456,228s-23.7,118.2-66.8,161.2
					S288.9,456,228,456c-60.9,0-118.2-23.7-161.2-66.8S0,288.9,0,228S23.7,109.8,66.8,66.8C109.8,23.7,167.1,0,228,0z M228,444
					c119.1,0,216-96.9,216-216S347.1,12,228,12C108.9,12,12,108.9,12,228S108.9,444,228,444z"/>
			</g>
		</g>
	</g>
	<g id="그룹_2047" transform="translate(130.558 393.166)">
		<g id="패스_1501">
			<path class="st2" d="M167.8,80.8c0,21.5-8.2,42.9-24.5,59.3c-32.7,32.7-85.9,32.7-118.5,0c-1.2-1.2-1.2-3.1,0-4.2
				c1.2-1.2,3.1-1.2,4.2,0c30.3,30.3,79.7,30.3,110,0c15.2-15.2,22.8-35.1,22.8-55c0-19.9-7.6-39.9-22.8-55
				c-30.3-30.3-79.7-30.3-110,0c-1.2,1.2-3.1,1.2-4.2,0c-1.2-1.2-1.2-3.1,0-4.2c32.7-32.7,85.9-32.7,118.5,0
				C159.7,37.9,167.8,59.4,167.8,80.8z"/>
		</g>
		<g id="선_12">
			<path class="st2" d="M67.3,81.2c0,1.7-1.3,3-3,3H0c-1.7,0-3-1.3-3-3c0-1.7,1.3-3,3-3h64.3C65.9,78.2,67.3,79.5,67.3,81.2z"/>
		</g>
	</g>
</g>
</svg>
