<?xml version="1.0" encoding="utf-8"?>
<!-- Generator: Adobe Illustrator 22.0.1, SVG Export Plug-In . SVG Version: 6.00 Build 0)  -->
<svg version="1.1" id="레이어_1" xmlns="http://www.w3.org/2000/svg" xmlns:xlink="http://www.w3.org/1999/xlink" x="0px"
	 y="0px" viewBox="0 0 39 61.3" style="enable-background:new 0 0 39 61.3;" xml:space="preserve">
<style type="text/css">
	.st0{fill:none;}
	.st1{fill:#FFFFFF;}
	.st2{fill:none;stroke:#FFFFFF;stroke-linecap:round;}
	.st3{fill:none;stroke:#FFFFFF;stroke-width:2;stroke-miterlimit:10;}
</style>
<g id="그룹_2008" transform="translate(-430.508 -400.342)">
	<g id="사각형_1837">
		<g id="패스_1494">
			<path class="st0" d="M469.5,437.9v20.8c0,1.6-1.4,2.9-3,2.8h-33c-1.6,0-3-1.2-3-2.8v-20.8c0-1.6,1.4-2.9,3-2.8h33
				C468.1,435,469.4,436.3,469.5,437.9z"/>
			<path class="st1" d="M433.5,437.1c-0.5,0-1,0.4-1,0.8v20.8c0,0.5,0.4,0.8,1,0.8h33c0.6,0,1-0.4,1-0.8v-20.8c0-0.5-0.5-0.8-1-0.8
				H433.5 M433.5,435.1h33c1.7,0,3,1.3,3,2.8v20.8c0,1.6-1.3,2.8-3,2.8h-33c-1.7,0-3-1.3-3-2.8v-20.8
				C430.5,436.4,431.9,435.1,433.5,435.1z"/>
		</g>
	</g>
	<g id="타원_451">
		<g id="타원_615" transform="translate(446.508 444.559)">
			<circle class="st0" cx="3.8" cy="3.8" r="3.8"/>
			<circle class="st2" cx="3.8" cy="3.8" r="3.3"/>
		</g>
	</g>
	<path id="패스_1495" class="st3" d="M432,436.8c0.4-0.7,2.2-3.6,2.2-5.2v-10.6c0-2,1.3-3.1,2.6-3.1h9.3c1,0,1.8,0.3,1.8,0.9v2.1
		c0,1.1,1.3,0.8,1.3,0.8h1.6c0,0,1.3,0.3,1.3-0.8v-2.1c0-0.6,0.9-0.9,1.8-0.9h9.3c1.3,0,2.6,1,2.6,3.1v10.6c0,1.6,1.8,4.5,2.2,5.2"
		/>
	<line id="선_10" class="st3" x1="434.6" y1="432.5" x2="465.9" y2="432.5"/>
	<line id="선_11" class="st3" x1="432.2" y1="457.4" x2="468.2" y2="457.4"/>
	<path id="패스_1496" class="st3" d="M440.3,417.5v-14.1c0-1.1,0.9-2.1,2.1-2.1l0,0c1.1,0,2.1,0.9,2.1,2.1v14.1"/>
	<path id="패스_1497" class="st3" d="M456.5,417.5v-14.1c0-1.1,0.9-2.1,2.1-2.1l0,0c1.1,0,2.1,0.9,2.1,2.1v14.1"/>
</g>
</svg>
