<?xml version="1.0" encoding="utf-8"?>
<!-- Generator: Adobe Illustrator 22.0.1, SVG Export Plug-In . SVG Version: 6.00 Build 0)  -->
<svg version="1.1" id="레이어_1" xmlns="http://www.w3.org/2000/svg" xmlns:xlink="http://www.w3.org/1999/xlink" x="0px"
	 y="0px" viewBox="0 0 81 81" style="enable-background:new 0 0 81 81;" xml:space="preserve">
<style type="text/css">
	.st0{fill:none;}
	.st1{fill:#3478F5;}
</style>
<g id="심박수" transform="translate(-27.5 63.79)">
	<rect id="사각형_2196" x="27.5" y="-63.8" class="st0" width="81" height="81"/>
	<g id="그룹_2411" transform="translate(-348.618 -534.108)">
		<g id="그룹_2409" transform="translate(384.118 485.318)">
			<path class="st1" d="M49.3,0C37.7-0.2,32.5,9.5,32.5,9.5S27.3-0.2,15.7,0C4.2,0.2-4.8,11.8,2.8,25.6C10.3,39.4,32.5,52,32.5,52
				s22.2-12.6,29.7-26.4C69.8,11.8,60.8,0.2,49.3,0z M59.4,24.6H47.7c-0.6,0-1.2-0.4-1.4-1L45.7,22l-7.9,16.7
				c-0.2,0.5-0.8,0.9-1.3,0.9c0,0-0.1,0-0.1,0c-0.6,0-1.1-0.5-1.3-1l-6.5-20.9L23.7,24c-0.3,0.4-0.7,0.6-1.2,0.6H5
				c-0.8,0-1.5-0.7-1.5-1.5c0-0.8,0.7-1.5,1.5-1.5h16.8l6.1-8.1c0.3-0.5,0.9-0.7,1.5-0.6c0.5,0.1,1,0.5,1.2,1l6.2,20l7.8-16.5
				c0.3-0.5,0.8-0.9,1.4-0.9c0.6,0,1.1,0.4,1.3,1l1.5,4h10.7c0.8,0,1.5,0.7,1.5,1.5C60.9,23.9,60.3,24.6,59.4,24.6z"/>
		</g>
	</g>
</g>
</svg>
