<?xml version="1.0" encoding="utf-8"?>
<!-- Generator: Adobe Illustrator 22.0.1, SVG Export Plug-In . SVG Version: 6.00 Build 0)  -->
<svg version="1.1" id="레이어_1" xmlns="http://www.w3.org/2000/svg" xmlns:xlink="http://www.w3.org/1999/xlink" x="0px"
	 y="0px" viewBox="0 0 81 81" style="enable-background:new 0 0 81 81;" xml:space="preserve">
<style type="text/css">
	.st0{fill:none;}
	.st1{fill:#3478F5;}
	.st2{fill:#1C1C1D;}
</style>
<g id="호흡" transform="translate(-27.5 63.79)">
	<rect id="사각형_2196" x="27.5" y="-63.8" class="st0" width="81" height="81"/>
	<g id="그룹_2408" transform="translate(-28.945 -330.862)">
		<path class="st1" d="M123.8,300.7c-0.2-0.4-4.8-8.5-11.4-12.1c-1.1-0.5-2.2-0.8-3.4-0.9c-1.7,0-3.9,0.7-5.1,4.1c0,0,0,0.1,0,0.1
			c0,0.1-1.4,14-0.5,25.4c0,0.3,0.3,8,4.7,9.9c0.4,0.2,9.2,4.6,14.6,5.7c0.4,0.1,0.7,0.1,1.1,0.1c1.7,0,5.6-0.5,6.3-5.3
			C130.2,327.3,132.3,316.2,123.8,300.7z M123.4,317.6c-0.1,0.2-0.3,0.4-0.5,0.4c0,0-0.1,0-0.1,0l-3.4-0.8l2.7,4.2
			c0.2,0.3,0.1,0.6-0.2,0.8c-0.1,0.1-0.2,0.1-0.3,0.1c-0.2,0-0.4-0.1-0.5-0.3l-8.1-12.5c0,1.9,0.1,4.7,0.3,5.9l1.7,4.3
			c0.1,0.3,0,0.7-0.3,0.8c-0.1,0-0.1,0-0.2,0l0,0c-0.2,0-0.5-0.2-0.5-0.4l-1.7-4.3c0,0,0-0.1,0-0.1c-0.3-1.7-0.3-6.9-0.3-8l-5.1-7.8
			c-0.2-0.3,0-0.6,0.3-0.8c0.2-0.1,0.5-0.1,0.7,0.2l3.8,5.8c0.1-0.1,0.2-0.2,0.3-0.3c1.6-0.4,3.2-1,4.7-1.7c0.3-0.1,0.7,0,0.8,0.4
			c0.1,0.3,0,0.5-0.2,0.7c-1.6,0.7-3.3,1.3-5,1.8c0,0,0,0-0.1,0l0.7,1.1c0.1,0.1,0.1,0.1,0.1,0.2l5.5,8.5c0,0,0.1,0,0.1,0l4.5,1.1
			C123.3,317,123.5,317.3,123.4,317.6z"/>
		<g>
			<polygon class="st2" points="122.9,318.1 122.8,318.1 122.8,318.1 			"/>
		</g>
		<path class="st1" d="M91,291.9c0,0,0-0.1,0-0.1c-1.2-3.4-3.4-4.1-5.1-4.1c-1.2,0-2.4,0.3-3.5,0.9c-6.6,3.7-11.2,11.8-11.4,12.1
			c-8.5,15.5-6.4,26.6-6.3,27.1c0.7,4.8,4.6,5.3,6.3,5.3c0.4,0,0.8,0,1.1-0.1c5.4-1.1,14.2-5.5,14.6-5.7c4.5-1.9,4.8-9.6,4.8-9.9
			C92.5,305.9,91,292,91,291.9z M88.3,299.9l-5.1,7.8c0,1,0,6.3-0.3,8c0,0,0,0.1,0,0.1l-1.7,4.3c-0.1,0.2-0.3,0.4-0.5,0.4
			c-0.1,0-0.2,0-0.2,0c-0.3-0.1-0.5-0.5-0.3-0.8l1.7-4.3c0.2-1.2,0.2-4,0.3-5.9l-8.1,12.5c-0.1,0.2-0.3,0.3-0.5,0.3
			c-0.3,0-0.6-0.3-0.6-0.6c0-0.1,0-0.2,0.1-0.3l2.7-4.2l-3.4,0.8c0,0-0.1,0-0.1,0c-0.3,0-0.6-0.3-0.6-0.6c0-0.3,0.2-0.5,0.4-0.5
			l4.5-1.1c0,0,0.1,0,0.1,0l5.5-8.5c0,0,0,0,0,0l0.8-1.3c0,0,0,0-0.1,0c-1.7-0.4-3.4-1-5-1.8c-0.3-0.1-0.5-0.5-0.3-0.8
			c0.1-0.3,0.5-0.5,0.8-0.3c0.1,0,0.1,0,0.1,0.1c1.5,0.7,3.1,1.2,4.7,1.7c0.1,0,0.3,0.1,0.3,0.3l3.8-5.8c0.2-0.3,0.6-0.3,0.8-0.1
			C88.3,299.3,88.4,299.6,88.3,299.9z"/>
		<path id="패스_2488" class="st1" d="M91.5,301.3c-0.3,0-0.6-0.2-0.6-0.6l-0.2-3.8c0-0.2,0.1-0.4,0.3-0.6l3.1-1.7v-13
			c0-0.3,0.3-0.6,0.6-0.6c0,0,0,0,0,0h5.3c0.3,0,0.6,0.3,0.6,0.6l0,0v12.9l3.8,1.8c0.2,0.1,0.4,0.3,0.3,0.6l-0.3,3.8
			c0,0.3-0.3,0.6-0.6,0.6c-0.1,0-0.1,0-0.2-0.1l-5.9-2.7h-0.2l-5.7,2.7C91.7,301.3,91.6,301.3,91.5,301.3z M97.3,297.3h0.5
			c0.1,0,0.2,0,0.2,0.1l5.2,2.4l0.2-2.6l-3.7-1.8c-0.2-0.1-0.3-0.3-0.3-0.5v-12.6h-4.1V295c0,0.2-0.1,0.4-0.3,0.5l-3.1,1.7l0.1,2.6
			l5.1-2.4C97.1,297.4,97.2,297.3,97.3,297.3L97.3,297.3z"/>
	</g>
</g>
</svg>
