<?xml version="1.0" encoding="utf-8"?>
<!-- Generator: Adobe Illustrator 22.0.1, SVG Export Plug-In . SVG Version: 6.00 Build 0)  -->
<svg version="1.1" id="menubar_store_def" xmlns="http://www.w3.org/2000/svg" xmlns:xlink="http://www.w3.org/1999/xlink" x="0px"
	 y="0px" viewBox="0 0 76 76" style="enable-background:new 0 0 76 76;" xml:space="preserve">
<style type="text/css">
	.st0{fill:none;}
	.st1{fill-rule:evenodd;}
</style>
<g id="그룹_1995" transform="translate(0.732 5.002)">
	<g id="그룹_1983">
		<g id="사각형_2279">
			<g id="그룹_1992">
				<path id="사각형_2281" class="st0" d="M47.3,36.1h8c1.2,0,2.3,1,2.3,2.3V46c0,1.2-1,2.3-2.3,2.3h-8c-1.2,0-2.3-1-2.3-2.3
					v-7.7C45,37.1,46,36.1,47.3,36.1z"/>
			</g>
			<g id="그룹_1993">
				<path id="패스_1479" class="st1" d="M55.3,50.3h-8c-2.4,0-4.3-1.9-4.3-4.3v-7.7c0-2.3,1.9-4.3,4.3-4.3h8
					c2.4,0,4.3,1.9,4.3,4.3V46C59.5,48.4,57.6,50.3,55.3,50.3z M47.3,36.1c-1.2,0-2.3,1-2.3,2.3V46c0,1.2,1,2.3,2.3,2.3h8
					c1.2,0,2.3-1,2.3-2.3v-7.7c0-1.2-1-2.3-2.3-2.3L47.3,36.1L47.3,36.1z"/>
			</g>
		</g>
		<g id="사각형_2280">
			<path id="패스_1480" class="st1" d="M22.6,45.7L22.6,45.7c0.8,0,1.4,0.6,1.4,1.4l0,0v5.1c0,0.8-0.6,1.4-1.4,1.4l0,0l0,0
				c-0.8,0-1.4-0.6-1.4-1.4l0,0v-5.1C21.2,46.4,21.8,45.7,22.6,45.7L22.6,45.7z"/>
		</g>
	</g>
	<path class="st1" d="M74.3,17.7c0-0.1,0-0.2-0.1-0.3l0,0c0,0,0,0,0-0.1l0,0C73.8,16.2,70.6,7,69.8,4.5c-0.7-2.3-2.6-4.1-5-4.5h-0.2
		c-1,0-5.1,0.2-5.2,0.2H15C14.8,0.2,10.8,0,9.8,0H9.6c-2.4,0.4-4.3,2.1-5,4.4c-0.9,2.7-4.3,13-4.3,13l0,0c0,0.1-0.1,0.2-0.1,0.3
		c0,3.9,2.3,7.3,5.5,8.9V59c0,3.6,3,6.6,6.6,6.6h48.5c4.2,0,7.6-3.4,7.6-7.6V27C72,25.4,74.4,21.8,74.3,17.7z M35.7,63.6H19.2v-25
		l0,0c0.1-1.3,1.2-2.3,2.5-2.2h11.5c1.3,0,2.4,1,2.5,2.2V63.6z M66.5,58.1c0,3.1-2.5,5.6-5.6,5.6H37.7V38.5
		c-0.1-2.4-2.1-4.2-4.5-4.2H21.7l0,0c-2.4-0.1-4.4,1.8-4.5,4.2v25.1h-4.8c-2.5,0-4.6-2.1-4.6-4.6V27.4c0.8,0.2,1.6,0.3,2.5,0.3
		c4,0,7.4-2.3,9-5.7c1.6,3.3,5,5.7,9,5.7s7.4-2.3,9-5.7c1.6,3.3,5,5.7,9,5.7c0.1,0,0.3,0,0.4,0c0.1,0,0.3,0,0.4,0
		c3.7-0.2,6.8-2.4,8.3-5.5c1.6,3.3,5,5.5,8.9,5.5c0.1,0,0.3,0,0.4,0s0.3,0,0.4,0l0,0c0.5,0,1-0.1,1.4-0.2
		C66.5,27.5,66.5,58.1,66.5,58.1z M65,25.8c-0.2,0-0.4,0-0.7,0c-4.4,0-8-3.6-8-8l0,0l0,0l0,0c0-0.4-0.3-0.7-0.6-0.8h-0.1
		c-0.1,0-0.2,0-0.2,0l0,0l0,0c-0.1,0-0.1,0-0.2,0.1h-0.1c-0.1,0-0.2,0.1-0.2,0.2c0,0-0.1,0-0.1,0.1c-0.1,0.1-0.1,0.2-0.2,0.3
		c0,0,0,0,0,0.1s-0.1,0.2-0.1,0.3c0,0,0,0,0,0.1l0,0l0,0l0,0c0.2,4.2-3.1,7.8-7.3,8c-0.2,0-0.4,0-0.7,0c-4.4,0-8-3.6-8-8
		c0-0.6-0.4-1-1-1c-0.1,0-0.3,0-0.4,0.1c-0.4,0.2-0.6,0.5-0.6,0.9c0,4.4-3.6,8-8,8s-8-3.6-8-8c0-0.6-0.4-1-1-1s-1,0.4-1,1
		c0,4.4-3.6,8-8,8s-7.9-3.5-8-7.9C2.7,16.5,5.7,7.5,6.5,5C7,3.5,8.3,2.3,9.9,2c1.1,0,5,0.2,5.1,0.2h44.6c0,0,3.9-0.2,5-0.2
		c1.6,0.3,2.9,1.5,3.3,3.1c0.8,2.5,4,11.6,4.4,12.9C72.4,22.1,69.1,25.6,65,25.8z"/>
</g>
<rect id="사각형_2287" class="st0" width="76" height="76"/>
</svg>
