<?xml version="1.0" encoding="utf-8"?>
<!-- Generator: Adobe Illustrator 22.0.1, SVG Export Plug-In . SVG Version: 6.00 Build 0)  -->
<svg version="1.1" id="menubar_Setting_def" xmlns="http://www.w3.org/2000/svg" xmlns:xlink="http://www.w3.org/1999/xlink"
	 x="0px" y="0px" viewBox="0 0 76 76" style="enable-background:new 0 0 76 76;" xml:space="preserve">
<style type="text/css">
	.st0{fill:none;}
	.st1{fill-rule:evenodd;}
</style>
<rect id="사각형_1913" class="st0" width="76" height="76"/>
<g id="패스_902" transform="translate(-0.456)">
	<path class="st0" d="M69.9,47.9l-5.6-3.2c1.2-4.4,1.2-9,0-13.4l5.6-3.2c2.4-1.4,3.2-4.4,1.8-6.8c0,0,0,0,0,0l-2-3.5
		c-1.4-2.4-4.5-3.2-6.9-1.8l-5.6,3.2c-3.3-3.2-7.3-5.6-11.8-6.8V6c0-2.8-2.3-5-5-5h-4c-2.8,0-5,2.2-5,5v6.2c-4.5,1.2-8.7,3.5-12,6.8
		L14,15.9c-2.4-1.4-5.5-0.6-6.9,1.8l-2,3.5c-1.4,2.4-0.6,5.5,1.8,6.8c0,0,0,0,0,0l5.3,3c-1.2,4.5-1.2,9.3,0,13.8l-5.3,3
		c-2.4,1.4-3.2,4.4-1.8,6.8c0,0,0,0,0,0l2,3.5c1.4,2.4,4.5,3.2,6.9,1.8l5.4-3.1c3.3,3.3,7.5,5.6,12,6.8V70c0,2.8,2.3,5,5,5h4
		c2.8,0,5-2.2,5-5v-6.3c4.4-1.2,8.5-3.6,11.8-6.8l5.6,3.2c2.4,1.4,5.5,0.6,6.9-1.8l2-3.5C73.2,52.4,72.3,49.3,69.9,47.9
		C69.9,47.9,69.9,47.9,69.9,47.9z M38.3,49c-6.1-0.1-11-5-10.9-11.1c0.1-6.1,5-11,11.1-10.9c6,0.1,10.9,5,10.9,11
		C49.4,44.1,44.4,49,38.3,49C38.3,49,38.3,49,38.3,49z"/>
	<path class="st1" d="M40.5,73c1.7,0,3-1.3,3-3v-6.3c0-0.9,0.6-1.7,1.5-1.9c4.1-1.1,7.9-3.3,10.9-6.3c0.4-0.4,0.9-0.6,1.4-0.6
		c0.3,0,0.7,0.1,1,0.3l5.6,3.2c0.5,0.3,1,0.4,1.5,0.4c1.1,0,2.1-0.6,2.7-1.5l2-3.5c0.4-0.7,0.5-1.5,0.3-2.3
		c-0.2-0.8-0.7-1.4-1.4-1.8l-5.6-3.2c-0.8-0.4-1.2-1.4-0.9-2.2c0.5-2,0.8-4.1,0.8-6.2s-0.3-4.2-0.8-6.2c-0.2-0.9,0.2-1.8,0.9-2.2
		l5.6-3.2c0.7-0.4,1.2-1,1.4-1.8c0.2-0.8,0.1-1.6-0.3-2.3l-2-3.5c-0.5-0.9-1.6-1.5-2.7-1.5c-0.5,0-1.1,0.1-1.5,0.4l-5.6,3.2
		c-0.3,0.2-0.7,0.3-1,0.3c-0.5,0-1-0.2-1.4-0.6c-3-3-6.8-5.2-10.9-6.3c-0.9-0.2-1.5-1-1.5-1.9V6c0-1.7-1.4-3-3-3h-4
		c-1.7,0-3,1.3-3,3v6.2c0,0.9-0.6,1.7-1.5,1.9c-4.2,1.1-8,3.3-11.1,6.3c-0.4,0.4-0.9,0.6-1.4,0.6c-0.3,0-0.7-0.1-1-0.3L13,17.7
		c-0.5-0.3-1-0.4-1.5-0.4c-1.1,0-2.1,0.6-2.7,1.5l-2,3.5c-0.4,0.7-0.5,1.5-0.3,2.3c0.2,0.8,0.7,1.4,1.4,1.8l5.3,3
		c0.8,0.5,1.2,1.4,0.9,2.3c-0.6,2-0.8,4.2-0.8,6.4s0.3,4.3,0.8,6.4c0.2,0.9-0.1,1.8-0.9,2.3L8,49.7c-0.7,0.4-1.2,1-1.4,1.8
		c-0.2,0.8-0.1,1.6,0.3,2.3l2,3.5c0.5,0.9,1.6,1.5,2.7,1.5c0.5,0,1.1-0.1,1.5-0.4l5.4-3.1c0.3-0.2,0.7-0.3,1-0.3
		c0.5,0,1,0.2,1.4,0.6c3.1,3,6.9,5.2,11.1,6.3c0.9,0.2,1.5,1,1.5,1.9V70c0,1.7,1.4,3,3,3H40.5 M38.3,25c7.2,0,13.1,5.8,13.1,13
		s-5.9,13-13.1,13s-13.1-5.8-13.1-13S31.1,25,38.3,25 M40.5,75h-4c-2.8,0-5-2.3-5-5v-6.2c-4.6-1.2-8.7-3.6-12-6.8L14,60.1
		c-0.8,0.5-1.7,0.7-2.5,0.7c-1.7,0-3.4-0.9-4.4-2.5l-2-3.5c-1.4-2.4-0.6-5.5,1.8-6.8l5.3-3c-0.6-2.2-0.9-4.5-0.9-6.9
		s0.3-4.7,0.9-6.9L7,28.1c-2.4-1.4-3.2-4.4-1.8-6.8l2-3.5c0.9-1.6,2.6-2.5,4.4-2.5c0.9,0,1.7,0.2,2.5,0.7l5.4,3.1
		c3.3-3.2,7.4-5.6,12-6.8V6c0-2.8,2.3-5,5-5h4c2.8,0,5,2.3,5,5v6.3c4.5,1.3,8.6,3.6,11.8,6.8l5.6-3.2c0.8-0.5,1.7-0.7,2.5-0.7
		c1.7,0,3.4,0.9,4.4,2.5l2,3.5c1.4,2.4,0.6,5.5-1.8,6.8l-5.6,3.2c0.6,2.1,0.9,4.4,0.9,6.7s-0.3,4.6-0.9,6.7l5.6,3.2
		c2.4,1.4,3.2,4.5,1.8,6.8l-2,3.5c-0.9,1.6-2.6,2.5-4.4,2.5c-0.9,0-1.7-0.2-2.5-0.7l-5.6-3.2c-3.2,3.2-7.3,5.6-11.8,6.8V70
		C45.5,72.8,43.3,75,40.5,75z M38.3,27c-6.1,0-11.1,4.9-11.1,11s5,11,11.1,11c6.1,0,11.1-4.9,11.1-11S44.4,27,38.3,27z"/>
</g>
</svg>
