<?xml version="1.0" encoding="utf-8"?>
<!-- Generator: Adobe Illustrator 22.0.1, SVG Export Plug-In . SVG Version: 6.00 Build 0)  -->
<svg version="1.1" id="menubar_analysis_def" xmlns="http://www.w3.org/2000/svg" xmlns:xlink="http://www.w3.org/1999/xlink"
	 x="0px" y="0px" viewBox="0 0 76 76" style="enable-background:new 0 0 76 76;" xml:space="preserve">
<style type="text/css">
	.st0{fill:none;}
	.st1{fill-rule:evenodd;}
</style>
<rect id="사각형_1913" class="st0" width="76" height="76"/>
<g id="패스_904" transform="translate(0.999 1)">
	<path class="st0" d="M11,0h52c5,0,9,4,9,9v56c0,5-4,9-9,9H11c-5,0-9-4-9-9V9C2,4,6,0,11,0z"/>
	<path class="st1" d="M11,2C7.1,2,4,5.1,4,9v56c0,3.9,3.1,7,7,7h52c3.9,0,7-3.1,7-7V9c0-3.9-3.1-7-7-7H11 M11,0h52c5,0,9,4,9,9v56
		c0,5-4,9-9,9H11c-5,0-9-4-9-9V9C2,4,6,0,11,0z"/>
</g>
<path id="사각형_1698" class="st1" d="M20,29L20,29c2.2,0,4,1.8,4,4v28l0,0h-8l0,0V33C16,30.8,17.8,29,20,29z"/>
<path id="사각형_1699" class="st1" d="M38,19L38,19c2.2,0,4,1.8,4,4v38l0,0h-8l0,0V23C34,20.8,35.8,19,38,19z"/>
<path id="사각형_1700" class="st1" d="M56,43L56,43c2.2,0,4,1.8,4,4v14l0,0h-8l0,0V47C52,44.8,53.8,43,56,43z"/>
</svg>
