<?xml version="1.0" encoding="utf-8"?>
<!-- Generator: Adobe Illustrator 22.0.1, SVG Export Plug-In . SVG Version: 6.00 Build 0)  -->
<svg version="1.1" id="menubar_home_def" xmlns="http://www.w3.org/2000/svg" xmlns:xlink="http://www.w3.org/1999/xlink" x="0px"
	 y="0px" viewBox="0 0 76 76" style="enable-background:new 0 0 76 76;" xml:space="preserve">
<style type="text/css">
	.st0{fill:none;}
	.st1{fill-rule:evenodd;}
</style>
<rect id="사각형_1913" class="st0" width="76" height="76"/>
<g id="패스_893" transform="translate(-13.186 -20.507)">
	<path class="st0" d="M87.3,55.2L53.4,22.4c-1.3-1.2-3.2-1.2-4.5,0L15.2,55.1c-0.5,0.5-0.9,1.1-1,1.8c-0.3,1.6,0.9,3.2,2.5,3.4
		c0.2,0,0.3,0,0.5,0h5.3c0.1,0,0.2,0.1,0.2,0.2c0,0,0,0,0,0v29.6c0,2.9,2.3,5.3,5.2,5.3c0,0,0,0,0,0h9.5c2.9,0,5.2-2.4,5.2-5.3
		c0,0,0,0,0,0V77.6c0-0.1,0.1-0.2,0.2-0.2c0,0,0,0,0,0h16.5c0.1,0,0.2,0.1,0.2,0.2c0,0,0,0,0,0v12.6c0,2.9,2.3,5.3,5.2,5.3
		c0,0,0,0,0,0h9.5c2.9,0,5.2-2.4,5.2-5.3c0,0,0,0,0,0V60.6c0-0.1,0.1-0.2,0.2-0.2c0,0,0,0,0,0H85c0.7,0,1.4-0.2,2-0.6
		c1.3-1,1.6-2.9,0.6-4.2C87.5,55.4,87.4,55.3,87.3,55.2z"/>
	<path class="st1" d="M51.2,23.5c-0.3,0-0.6,0.1-0.9,0.3L16.6,56.5c-0.2,0.2-0.4,0.5-0.4,0.7c-0.1,0.4,0.1,0.7,0.2,0.8
		c0.1,0.1,0.4,0.3,0.7,0.3h5.3c1.2,0,2.2,1,2.2,2.2v29.6c0,1.8,1.5,3.3,3.2,3.3h9.5c1.8,0,3.2-1.5,3.2-3.3V77.6c0-1.2,1-2.2,2.2-2.2
		h16.5c1.2,0,2.2,1,2.2,2.2v12.6c0,1.8,1.5,3.3,3.2,3.3h9.5c1.8,0,3.2-1.5,3.2-3.3V60.6c0-1.2,1-2.2,2.2-2.2H85
		c0.3,0,0.6-0.1,0.8-0.2c0.3-0.3,0.4-0.6,0.4-0.8c0-0.2,0-0.5-0.3-0.8L52,23.9C51.8,23.6,51.5,23.5,51.2,23.5 M51.2,21.5
		c0.8,0,1.6,0.3,2.3,0.9l33.8,32.8c1.3,1.3,1.2,3.4-0.3,4.6c-0.6,0.4-1.3,0.6-2,0.6h-5.1c-0.1,0-0.2,0.1-0.2,0.2v29.6
		c0,2.9-2.3,5.3-5.2,5.3h-9.5c-2.9,0-5.2-2.4-5.2-5.3V77.6c0-0.1-0.1-0.2-0.2-0.2H42.9c-0.1,0-0.2,0.1-0.2,0.2v12.6
		c0,2.9-2.3,5.3-5.2,5.3H28c-2.9,0-5.2-2.4-5.2-5.3V60.6c0-0.1-0.1-0.2-0.2-0.2h-5.3c-1.8,0-3.2-1.6-3-3.5c0.1-0.7,0.5-1.3,1-1.8
		l33.7-32.6C49.6,21.8,50.4,21.5,51.2,21.5z"/>
</g>
</svg>
