<svg xmlns="http://www.w3.org/2000/svg" width="72.311" height="66.125" viewBox="0 0 72.311 66.125">
  <g id="심박수_icon" transform="translate(-4.844 -14.749)">
    <g id="구성_요소_1" data-name="구성 요소 1" transform="translate(4.844 14.749)">
      <g id="그룹_486" data-name="그룹 486">
        <g id="패스_748" data-name="패스 748" transform="translate(-1296.664 -311.794)" fill="none" stroke-linejoin="round">
          <path d="M1332.818,377.92a5.729,5.729,0,0,1-2.878-.775c-19.8-11.476-29.228-21.783-32.547-35.563-2.708-11.226,2.1-25.188,14.833-29.119,9.211-2.85,17.3,4.125,20.6,7.552,3.295-3.43,11.4-10.4,20.589-7.552h0c12.731,3.931,17.543,17.893,14.835,29.119-3.323,13.783-12.749,24.086-32.55,35.563A5.726,5.726,0,0,1,1332.818,377.92Z" stroke="none"/>
          <path d="M 1332.818115234375 372.9195861816406 C 1332.948852539063 372.9195861816406 1333.072265625 372.8863830566406 1333.18505859375 372.8208618164063 C 1333.1865234375 372.8200378417969 1333.18798828125 372.8191833496094 1333.189453125 372.818359375 C 1338.056518554688 369.9974060058594 1342.137573242188 367.3375854492188 1345.665405273438 364.6868896484375 C 1349.170288085938 362.0535583496094 1352.0478515625 359.4908447265625 1354.462646484375 356.8523254394531 C 1359.056396484375 351.8330383300781 1361.891967773438 346.6083679199219 1363.386352539063 340.4096069335938 C 1364.505126953125 335.7699890136719 1364.025146484375 330.6494750976563 1362.069458007813 326.3610229492188 C 1360.618530273438 323.1793823242188 1357.682739257813 319.0143432617188 1351.933715820313 317.2394409179688 C 1350.983642578125 316.9454650878906 1350.003173828125 316.7964172363281 1349.019653320313 316.7964172363281 C 1343.448364257813 316.7964172363281 1338.358032226563 321.4696044921875 1336.428100585938 323.4787902832031 C 1335.485595703125 324.4598999023438 1334.18408203125 325.0146484375 1332.82373046875 325.0150756835938 C 1332.823120117188 325.0150756835938 1332.82275390625 325.0150756835938 1332.822143554688 325.0150756835938 C 1331.46240234375 325.0150756835938 1330.161010742188 324.4611511230469 1329.218383789063 323.4810791015625 C 1327.284790039063 321.4706115722656 1322.187377929688 316.7944946289063 1316.629150390625 316.7944946289063 C 1315.642700195313 316.7944946289063 1314.658569335938 316.9441833496094 1313.701293945313 317.2403869628906 C 1307.955444335938 319.0142517089844 1305.020263671875 323.1791076660156 1303.569702148438 326.360595703125 C 1301.614501953125 330.6488952636719 1301.135009765625 335.7695007324219 1302.25439453125 340.4109191894531 C 1303.746826171875 346.6070251464844 1306.581787109375 351.8310546875 1311.176025390625 356.851318359375 C 1313.590942382813 359.4900207519531 1316.468505859375 362.052978515625 1319.973266601563 364.6866760253906 C 1323.5009765625 367.3376159667969 1327.581420898438 369.9975891113281 1332.450317382813 372.8201293945313 C 1332.592041015625 372.9023132324219 1332.728515625 372.9195861816406 1332.818115234375 372.9195861816406 M 1332.818115234375 377.9195861816406 C 1331.822631835938 377.9195861816406 1330.828735351563 377.6601867675781 1329.940063476563 377.144287109375 C 1310.14306640625 365.66796875 1300.712524414063 355.3617858886719 1297.393432617188 341.5817565917969 C 1294.685791015625 330.3553771972656 1299.494873046875 316.3933715820313 1312.226318359375 312.4628601074219 C 1313.729125976563 311.9979248046875 1315.202026367188 311.7944946289063 1316.629150390625 311.7944946289063 C 1323.94921875 311.7944946289063 1330.063598632813 317.14697265625 1332.822143554688 320.0150756835938 C 1335.579956054688 317.1441040039063 1341.706665039063 311.7964172363281 1349.019653320313 311.7964172363281 C 1350.443969726563 311.7964172363281 1351.913330078125 311.9992980957031 1353.41162109375 312.4628601074219 C 1366.142822265625 316.3933715820313 1370.954223632813 330.3553771972656 1368.246948242188 341.5817565917969 C 1364.924194335938 355.3648376464844 1355.49755859375 365.66796875 1335.696655273438 377.144287109375 C 1334.80859375 377.6601867675781 1333.81494140625 377.9195861816406 1332.818115234375 377.9195861816406 Z" stroke="none" fill="#ffc421"/>
        </g>
        <path id="패스_822" data-name="패스 822" d="M3.122,29.234H28.677L31.884,19.2l6,23.8,6-34.348,5.38,27.416,2.793-6.828H64.576" transform="translate(2.676 7.411)" fill="none" stroke="#ffc421" stroke-linejoin="round" stroke-width="5"/>
      </g>
    </g>
  </g>
</svg>
